<?xml version="1.0" encoding="utf-8"?>
<!-- Generator: Adobe Illustrator 28.3.0, SVG Export Plug-In . SVG Version: 6.00 Build 0)  -->
<svg version="1.1" id="Capa_1" xmlns="http://www.w3.org/2000/svg" xmlns:xlink="http://www.w3.org/1999/xlink" x="0px" y="0px"
	 viewBox="0 0 384.8 200.1" style="enable-background:new 0 0 384.8 200.1;" xml:space="preserve">
<style type="text/css">
	.st0{fill:rgb(187, 187, 187);}
</style>
<g>
	<path class="st0" d="M60,68h30.2c15.9,0,31.7,10.6,31.7,32.3c0,23.6-16.3,33.4-31.7,33.4H60C60,133.7,60,68,60,68z M84.4,122H90
		c9.4,0,17.1-8.8,17.1-21.8c0-11.5-6.8-20.6-17.1-20.6h-5.5c-5.7,0-10,3.5-10,11.7V110C74.5,117.2,77.4,122.1,84.4,122L84.4,122z"/>
	<path class="st0" d="M136.7,78.6c-3,0.3-6.6-1.7-6.6-5.4c0-3.5,2.7-6.7,6.9-6.7c5.7,0,8.4,4.8,8.4,10c0,6.9-4.7,12.4-10.5,13
		c-2.1,0.3-3.6,0.1-5-0.3v-4.8C134,85.2,137,82.5,136.7,78.6z"/>
	<path class="st0" d="M154.4,68h21.5l11.6,34.6c1.7,5.4,6.3,5.4,8,0L207.1,68h21.5v65.6h-14.6v-28c0-4.2-4.2-5.4-5.9-0.2l-9.9,28.2
		h-13.5l-9.9-28.2c-1.6-4.7-6-3.3-6,0.2v28h-14.6L154.4,68L154.4,68z"/>
	<path class="st0" d="M276.5,68h48.3v11.7h-25.6c-4.5,0-8.3,2.2-8.4,7.3v0.1c0,5.3,3,7.6,8.4,7.6h23.5v10.8h-31.7v16.5h33.6v11.7
		h-48L276.5,68L276.5,68z"/>
</g>
<path class="st0" d="M197.5,200.1c-3,0-5.5-2.4-5.5-5.4c0-3,2.4-5.5,5.4-5.6c3.3-0.1,6.7-0.1,9.9-0.3c3-0.1,5.6,2.2,5.7,5.3
	c0.1,3-2.2,5.6-5.3,5.7C204.5,200,201,200.1,197.5,200.1C197.6,200.1,197.5,200.1,197.5,200.1L197.5,200.1z M177.4,199.8
	c-0.1,0-0.1,0-0.2,0c-3.4-0.1-6.8-0.3-10.2-0.6c-3-0.2-5.3-2.8-5.1-5.9c0.2-3,2.9-5.3,5.9-5.1c3.3,0.2,6.6,0.4,9.9,0.5
	c3,0.1,5.4,2.7,5.3,5.7C182.7,197.5,180.3,199.8,177.4,199.8L177.4,199.8z M227.8,198.4c-2.8,0-5.2-2.1-5.5-5c-0.3-3,1.9-5.7,4.9-6
	c3.3-0.3,6.6-0.7,9.9-1.1c3-0.4,5.8,1.8,6.1,4.8c0.4,3-1.8,5.8-4.8,6.1c-3.3,0.4-6.8,0.8-10.2,1.1
	C228.1,198.4,227.9,198.5,227.8,198.4L227.8,198.4z M147.2,197.4c-0.2,0-0.5,0-0.7,0c-3.4-0.4-6.8-0.9-10.2-1.4
	c-3-0.5-5.1-3.3-4.6-6.3s3.3-5,6.3-4.6c3.2,0.5,6.5,1,9.8,1.4c3,0.4,5.1,3.1,4.8,6.1C152.3,195.3,149.9,197.4,147.2,197.4
	L147.2,197.4z M257.7,194.2c-2.6,0-4.9-1.8-5.4-4.5c-0.6-3,1.4-5.9,4.4-6.4c3.2-0.6,6.5-1.3,9.7-2c3-0.7,5.9,1.2,6.6,4.2
	c0.7,3-1.2,5.9-4.2,6.6c-3.3,0.7-6.7,1.4-10.1,2.1C258.4,194.2,258,194.2,257.7,194.2L257.7,194.2z M117.4,192.2
	c-0.4,0-0.8,0-1.2-0.1c-3.4-0.7-6.7-1.6-10-2.4c-2.9-0.8-4.7-3.8-3.9-6.7c0.8-2.9,3.8-4.7,6.7-3.9c3.2,0.8,6.4,1.6,9.6,2.3
	c3,0.7,4.8,3.6,4.2,6.6C122.1,190.5,119.9,192.2,117.4,192.2z M287.1,187.1c-2.4,0-4.6-1.5-5.3-3.9c-0.9-2.9,0.8-6,3.7-6.8
	c3.2-0.9,6.4-2,9.4-3c2.9-1,6,0.6,7,3.4c1,2.9-0.5,6-3.4,7c-3.2,1.1-6.5,2.1-9.8,3.1C288.2,187,287.7,187.1,287.1,187.1L287.1,187.1
	z M88.2,184.1c-0.6,0-1.2-0.1-1.8-0.3c-3.3-1.1-6.6-2.3-9.7-3.5c-2.8-1.1-4.2-4.3-3.1-7.1s4.3-4.2,7.1-3.1c3,1.2,6.1,2.3,9.3,3.4
	c2.9,1,4.4,4.1,3.4,7C92.6,182.6,90.5,184.1,88.2,184.1L88.2,184.1z M315.6,176.7c-2.1,0-4.1-1.2-5-3.3c-1.2-2.8,0-6,2.8-7.3
	c3-1.3,6-2.8,8.9-4.2c2.7-1.4,6-0.3,7.4,2.4c1.4,2.7,0.3,6-2.4,7.4c-3,1.5-6.2,3-9.4,4.4C317.1,176.5,316.3,176.7,315.6,176.7
	L315.6,176.7z M60.2,172.4c-0.8,0-1.7-0.2-2.5-0.6c-3.2-1.6-6.2-3.3-9.2-5c-2.6-1.5-3.5-4.9-2-7.5s4.9-3.5,7.5-2
	c2.7,1.6,5.6,3.2,8.6,4.7c2.7,1.4,3.8,4.7,2.4,7.4C64.2,171.3,62.3,172.5,60.2,172.4L60.2,172.4z M342.1,162.2
	c-1.8,0-3.5-0.9-4.6-2.4c-1.7-2.5-1-5.9,1.5-7.6c2.7-1.8,5.4-3.8,7.8-5.7c2.4-1.9,5.8-1.5,7.7,0.9s1.5,5.8-0.9,7.7
	c-2.7,2.1-5.5,4.2-8.5,6.2C344.2,161.9,343.2,162.2,342.1,162.2L342.1,162.2z M34.7,156.3c-1.2,0-2.4-0.4-3.4-1.2
	c-2.8-2.2-5.5-4.6-8-6.9c-2.2-2.1-2.3-5.6-0.2-7.8c2.1-2.2,5.6-2.3,7.8-0.2c2.2,2.1,4.7,4.2,7.2,6.3c2.4,1.9,2.8,5.4,0.9,7.7
	C37.9,155.6,36.3,156.3,34.7,156.3L34.7,156.3z M364.7,142.2c-1.2,0-2.5-0.4-3.5-1.3c-2.3-1.9-2.6-5.4-0.7-7.8c2-2.5,3.9-5,5.5-7.5
	c1.6-2.6,5-3.4,7.6-1.8s3.4,5,1.8,7.6c-1.9,3-4,5.9-6.4,8.8C367.9,141.6,366.3,142.2,364.7,142.2L364.7,142.2z M14.2,134.2
	c-1.8,0-3.6-0.9-4.7-2.6c-2-3.2-3.7-6.4-5.1-9.7c-1.2-2.8,0.1-6,2.9-7.2c2.8-1.2,6,0.1,7.2,2.9c1.1,2.7,2.6,5.5,4.2,8.1
	c1.6,2.6,0.8,6-1.7,7.6C16.3,133.9,15.3,134.2,14.2,134.2L14.2,134.2z M378.3,115.5c-0.4,0-0.8,0-1.1-0.1c-3-0.6-4.9-3.5-4.3-6.5
	c0.6-2.9,0.9-5.9,0.9-8.9v-0.3c0-3,2.4-5.5,5.5-5.5h0c3,0,5.5,2.4,5.5,5.5v0.4c0,3.7-0.4,7.4-1.1,11.1
	C383.1,113.8,380.8,115.5,378.3,115.5L378.3,115.5z M5.5,105.7c-3,0-5.5-2.5-5.5-5.5v-0.2c0-3.6,0.4-7.3,1.1-10.9
	c0.6-3,3.5-4.9,6.5-4.3s4.9,3.5,4.3,6.5c-0.6,2.9-0.9,5.8-0.9,8.7v0.2C11,103.3,8.5,105.7,5.5,105.7L5.5,105.7z M375.1,85.6
	c-2.1,0-4.2-1.3-5.1-3.4c-1.1-2.7-2.6-5.4-4.3-8.1c-1.6-2.6-0.9-6,1.7-7.6c2.6-1.6,6-0.8,7.6,1.7c2,3.2,3.7,6.4,5.1,9.7
	c1.2,2.8-0.1,6-2.9,7.2C376.6,85.5,375.8,85.6,375.1,85.6L375.1,85.6z M14,77.2c-1,0-2-0.3-2.9-0.8c-2.6-1.6-3.4-5-1.8-7.6
	c1.8-3,4-5.9,6.3-8.8c1.9-2.3,5.4-2.7,7.7-0.7c2.3,1.9,2.7,5.4,0.7,7.7c-2,2.5-3.9,5-5.5,7.6C17.7,76.2,15.9,77.2,14,77.2L14,77.2z
	 M357.6,61.3c-1.4,0-2.7-0.5-3.8-1.5c-2.2-2.1-4.7-4.2-7.2-6.3c-2.4-1.9-2.8-5.3-0.9-7.7c1.9-2.4,5.3-2.8,7.7-0.9
	c2.8,2.2,5.5,4.6,8,6.9c2.2,2.1,2.3,5.6,0.2,7.8C360.5,60.7,359,61.3,357.6,61.3L357.6,61.3z M34.4,55c-1.6,0-3.2-0.7-4.3-2.1
	c-1.9-2.4-1.5-5.8,0.9-7.7c2.7-2.1,5.5-4.2,8.5-6.2c2.5-1.7,5.9-1.1,7.6,1.5c1.7,2.5,1.1,5.9-1.5,7.6c-2.7,1.8-5.3,3.8-7.8,5.7
	C36.8,54.6,35.6,55,34.4,55L34.4,55z M333.2,43.4c-0.9,0-1.9-0.2-2.8-0.7c-2.7-1.6-5.6-3.2-8.6-4.7c-2.7-1.4-3.8-4.7-2.4-7.4
	s4.7-3.8,7.4-2.4c3.1,1.6,6.2,3.3,9.2,4.9c2.6,1.5,3.5,4.9,2,7.5C337,42.4,335.1,43.4,333.2,43.4L333.2,43.4z M59.9,38.8
	c-2,0-3.9-1.1-4.9-3c-1.4-2.7-0.3-6,2.4-7.4c3-1.5,6.2-3,9.4-4.5c2.8-1.2,6,0,7.3,2.8s0,6-2.8,7.3c-3,1.3-6,2.8-8.9,4.2
	C61.6,38.6,60.8,38.8,59.9,38.8L59.9,38.8z M305.9,30.4c-0.7,0-1.3-0.1-2-0.4c-3-1.2-6.1-2.3-9.3-3.4c-2.9-1-4.4-4.1-3.4-7
	c1-2.9,4.1-4.4,7-3.4c3.3,1.1,6.5,2.3,9.7,3.5c2.8,1.1,4.2,4.3,3.1,7.1C310.2,29.1,308.1,30.4,305.9,30.4L305.9,30.4z M87.9,27.1
	c-2.3,0-4.4-1.4-5.2-3.7c-1-2.9,0.6-6,3.4-7c3.2-1.1,6.5-2.2,9.8-3.1c2.9-0.9,6,0.8,6.9,3.7c0.9,2.9-0.8,6-3.7,6.8
	c-3.2,1-6.4,2-9.4,3C89.1,27,88.5,27.1,87.9,27.1L87.9,27.1z M277.1,21.2c-0.5,0-0.9-0.1-1.4-0.2c-3.2-0.8-6.4-1.6-9.6-2.3
	c-3-0.7-4.8-3.6-4.2-6.6s3.6-4.8,6.6-4.2c3.4,0.7,6.7,1.5,10,2.4c2.9,0.8,4.7,3.8,4,6.7C281.8,19.6,279.5,21.2,277.1,21.2
	L277.1,21.2z M117,19c-2.5,0-4.8-1.7-5.4-4.3c-0.7-3,1.2-5.9,4.2-6.6c3.3-0.7,6.7-1.4,10.1-2.1c3-0.6,5.9,1.4,6.4,4.4
	c0.6,3-1.4,5.9-4.4,6.4c-3.2,0.6-6.5,1.3-9.7,2C117.8,18.9,117.4,19,117,19L117,19z M247.4,15.1c-0.3,0-0.6,0-0.9-0.1
	c-3.2-0.5-6.5-1-9.8-1.4c-3-0.4-5.1-3.1-4.8-6.1s3.1-5.2,6.1-4.8c3.4,0.4,6.8,0.9,10.2,1.4c3,0.5,5,3.3,4.6,6.3
	C252.5,13.2,250.1,15.1,247.4,15.1L247.4,15.1z M146.8,13.8c-2.7,0-5.1-2-5.4-4.8c-0.4-3,1.8-5.8,4.8-6.2c3.4-0.4,6.8-0.8,10.2-1.1
	c3-0.3,5.7,1.9,6,4.9c0.3,3-1.9,5.7-4.9,6c-3.3,0.3-6.6,0.7-9.9,1.1C147.3,13.8,147,13.8,146.8,13.8z M217.3,11.8
	c-0.1,0-0.2,0-0.4,0c-3.3-0.2-6.6-0.4-9.9-0.5c-3-0.1-5.4-2.7-5.3-5.7c0.1-3,2.7-5.4,5.7-5.3c3.4,0.1,6.8,0.3,10.2,0.5
	c3,0.2,5.3,2.8,5.1,5.9C222.6,9.6,220.2,11.8,217.3,11.8L217.3,11.8z M177,11.3c-2.9,0-5.4-2.3-5.5-5.3c-0.1-3,2.2-5.6,5.3-5.7
	C180.1,0.1,183.6,0,187,0c0,0,0.1,0,0.1,0c3,0,5.4,2.4,5.5,5.4c0,3-2.4,5.5-5.4,5.6c-3.3,0-6.7,0.1-9.9,0.3
	C177.1,11.3,177.1,11.3,177,11.3L177,11.3z"/>
</svg>
