<?xml version="1.0" encoding="utf-8"?>
<!-- Generator: Adobe Illustrator 28.3.0, SVG Export Plug-In . SVG Version: 6.00 Build 0)  -->
<svg version="1.1" id="Capa_1" xmlns="http://www.w3.org/2000/svg" xmlns:xlink="http://www.w3.org/1999/xlink" x="0px" y="0px"
	 viewBox="0 0 821.11 56.99" style="enable-background:new 0 0 821.11 56.99;" xml:space="preserve">
<style type="text/css">
	.st0{fill:#F29100;}
</style>
<g>
	<path class="st0" d="M0,1.3h25.05c13.22,0,26.29,8.79,26.29,26.74c0,19.56-13.52,27.66-26.29,27.66H0V1.3z M20.25,46.07h4.58
		c7.79,0,14.21-7.26,14.21-18.03c0-9.55-5.66-17.11-14.21-17.11h-4.58c-4.74,0-8.25,2.9-8.25,9.7v15.43
		C11.99,42.09,14.44,46.07,20.25,46.07z"/>
	<path class="st0" d="M63.54,10.09c-2.52,0.23-5.42-1.38-5.42-4.51c0-2.9,2.21-5.58,5.73-5.58c4.74,0,6.95,3.97,6.95,8.25
		c0,5.73-3.89,10.31-8.71,10.77c-1.76,0.23-2.98,0.08-4.13-0.23v-3.97C61.33,15.59,63.77,13.29,63.54,10.09z"/>
	<path class="st0" d="M78.21,1.3h17.8l9.62,28.65c1.38,4.51,5.2,4.51,6.65,0l9.63-28.65h17.8v54.4h-12.07V32.47
		c0-3.51-3.51-4.43-4.89-0.15l-8.17,23.38h-11.15l-8.17-23.38c-1.3-3.89-4.97-2.75-4.97,0.15v23.22H78.21V1.3z"/>
	<path class="st0" d="M191.18,55.69l-4.58-12.38h-22.92l-4.58,12.38H147.4l20.63-54.4h14.21l20.63,54.4H191.18z M183.16,34.15
		l-3.6-10.24c-1.83-5.35-7.03-5.19-8.78,0l-3.66,10.24H183.16z"/>
	<path class="st0" d="M247.08,1.3V11H227.3v44.69h-11.93v-36.9c0-5.04-2.59-7.79-8.02-7.79h-11.83V1.3H247.08z"/>
	<path class="st0" d="M267.01,55.69h-11.99V1.3h11.92L267.01,55.69z"/>
	<path class="st0" d="M295.34,1.3l13.22,26.13c1.76,3.82,5.96,2.83,5.96-0.76V1.3h12.07v54.4h-15.97l-13.6-26.2
		c-1.76-3.51-5.73-2.44-5.73,0.69v25.52h-12.07V1.3H295.34z"/>
	<path class="st0" d="M378.06,55.69l-4.58-12.38h-22.92l-4.58,12.38h-11.68l20.63-54.4h14.21l20.63,54.4H378.06z M370.04,34.15
		l-3.59-10.24c-1.83-5.35-7.03-5.19-8.78,0L354,34.15H370.04z"/>
	<path class="st0" d="M397.46,1.3h25.05c13.22,0,26.29,8.79,26.29,26.74c0,19.56-13.52,27.66-26.29,27.66h-25.05V1.3z M417.7,46.07
		h4.58c7.79,0,14.21-7.26,14.21-18.03c0-9.55-5.66-17.11-14.21-17.11h-4.58c-4.74,0-8.25,2.9-8.25,9.7v15.43
		C409.45,42.09,411.89,46.07,417.7,46.07z"/>
	<path class="st0" d="M493.62,55.69l-4.58-12.38h-22.92l-4.58,12.38h-11.68l20.63-54.4h14.21l20.63,54.4H493.62z M485.6,34.15
		l-3.59-10.24c-1.83-5.35-7.03-5.19-8.78,0l-3.67,10.24H485.6z"/>
	<path class="st0" d="M540.43,1.3h40.04V11h-21.24c-3.75,0-6.88,1.83-6.95,6.04v0.08c0,4.35,2.52,6.27,6.95,6.27h19.48v8.94h-26.28
		v13.68h27.8v9.7h-39.8V1.3z"/>
	<path class="st0" d="M599.7,37.66c0.23,6.95,4.81,9.63,11.68,9.63c6.42,0,10.01-2.29,10.01-6.04c0-3.52-2.75-5.27-6.88-6.34
		l-12.99-3.74c-7.41-2.06-13.22-6.42-13.22-14.75c0-9.93,8.25-16.43,21.7-16.43c12.76,0,22.09,4.43,22.77,17.57h-12.31
		c0-5.96-4.28-8.02-11.07-8.02c-5.58,0-8.87,2.37-8.87,5.73c0,3.51,3.51,5.12,8.71,6.42l8.87,2.44c9.93,2.75,15.51,7.03,15.51,15.89
		c0,11.23-9.09,16.96-22.53,16.96c-13.45,0-23.77-6.72-23.77-19.33H599.7z"/>
	<path class="st0" d="M689.21,1.3V11h-19.78v44.69h-11.93v-36.9c0-5.04-2.59-7.79-8.02-7.79h-11.83V1.3H689.21z"/>
	<path class="st0" d="M716.32,56.54c-17.04,0-22.92-9.47-22.92-23.3V1.3h12.07v34.15c0,8.56,4.89,11.99,10.85,11.99
		c5.88,0,10.77-3.44,10.77-11.99V1.3h12.07v31.93C739.16,47.06,733.36,56.54,716.32,56.54z"/>
	<path class="st0" d="M748.39,1.3h25.05c13.22,0,26.29,8.79,26.29,26.74c0,19.56-13.52,27.66-26.29,27.66h-25.05V1.3z M768.64,46.07
		h4.58c7.79,0,14.21-7.26,14.21-18.03c0-9.55-5.66-17.11-14.21-17.11h-4.58c-4.74,0-8.25,2.9-8.25,9.7v15.43
		C760.39,42.09,762.83,46.07,768.64,46.07z"/>
	<path class="st0" d="M821.11,55.69h-12V1.3h11.92L821.11,55.69z"/>
</g>
</svg>
